<?xml version="1.0" encoding="iso-8859-1"?>
<!-- Generator: Adobe Illustrator 21.0.0, SVG Export Plug-In . SVG Version: 6.00 Build 0)  -->
<svg xmlns="http://www.w3.org/2000/svg" xmlns:xlink="http://www.w3.org/1999/xlink" version="1.1" id="Capa_1" x="0px" y="0px" viewBox="0 0 512 512" style="enable-background:new 0 0 512 512;" xml:space="preserve" width="512" height="512">
<g>
	<g>
		<g>
			<g>
				<g>
					<g>
						<g>
							<g>
								<g>
									<g>
										<g>
											<g>
												<circle style="fill:#FFC200;" cx="256" cy="256" r="256"/>
											</g>
										</g>
									</g>
								</g>
							</g>
						</g>
					</g>
				</g>
			</g>
		</g>
	</g>
	<path style="fill:#FF9500;" d="M291.129,509.59C415.89,492.466,512,385.465,512,256c0-10.866-0.683-21.572-1.997-32.082   l-91.47-91.47L334.072,244.19l-85.31-85.31L73.839,258.79l159.617,159.617l-12.746,20.764L291.129,509.59z"/>
	<g>
		<path style="fill:#FF432E;" d="M383.301,262.99c-78.074-47.389-176.529-47.389-254.602,0    c-19.757,11.992-45.275,7.991-60.285-9.584c-0.206-0.241-0.411-0.482-0.617-0.722c-18.792-22.003-13.475-55.64,11.239-70.69    c108.481-66.061,245.447-66.061,353.929,0c24.714,15.05,30.031,48.687,11.239,70.69c-0.206,0.241-0.411,0.482-0.617,0.722    C428.576,270.981,403.059,274.982,383.301,262.99z"/>
	</g>
	<g>
		<path style="fill:#DB0404;" d="M432.964,181.994c-54.269-33.047-115.666-49.562-177.06-49.545v95    c44.164-0.017,88.331,11.829,127.396,35.541c19.757,11.992,45.275,7.991,60.285-9.584c0.206-0.241,0.411-0.481,0.617-0.722    C462.995,230.681,457.678,197.043,432.964,181.994z"/>
	</g>
	<g>
		<path style="fill:#555A66;" d="M204.242,411.788L204.242,411.788c-4.132-16.964,0.254-34.877,11.755-48.013l202.536-231.327    L306.26,418.678c-6.376,16.254-20.265,28.386-37.229,32.518h0C240.258,458.205,211.251,440.562,204.242,411.788z"/>
	</g>
	<g>
		<path style="fill:#333940;" d="M227.119,444.041c11.958,7.771,26.962,10.797,41.912,7.156h0    c16.964-4.132,30.853-16.264,37.229-32.518l112.273-286.23L227.119,444.041z"/>
	</g>
	<g>
		<circle style="fill:#AFB4C8;" cx="256" cy="398.259" r="25.259"/>
	</g>
	<g>
		<path style="fill:#9196AA;" d="M268.635,376.39l-26.411,43.037c3.963,2.584,8.692,4.092,13.776,4.092    c13.95,0,25.259-11.309,25.259-25.259C281.259,388.914,276.18,380.759,268.635,376.39z"/>
	</g>
</g>















</svg>
